<svg xmlns="http://www.w3.org/2000/svg" viewBox="0 0 200 200"><path d="M154.2 62.1c-12.5-17.9-32.3-28.2-54.2-28.2C82 33.8 65.1 41 52.4 54l-2.9 3-25.6-22 3.2-3.4C36.3 21.8 47.3 14 59.6 8.5 72.4 2.8 86 0 100.1 0c16.5 0 32.8 4 47.2 11.7 14.3 7.7 26.7 18.9 35.9 32.6l1.2 1.7c.8 1.1.4 2.7-.8 3.4l-24.9 14.7c-1.1.6-2.5.3-3.2-.7l-1.3-1.3z" fill="#cd2900"/><path d="M12.7 148.8C4.4 134 0 117.1 0 100c0-22.6 7.4-44 21.4-61.8l2.8-3.6 25.6 22-2.5 3.4c-8.8 11.6-13.5 25.4-13.5 40 0 10.9 2.7 21.8 8 31.4l2 3.7L15 152.9l-2.3-4.1z" fill="#ffce00"/><path d="M100 200c-33.1 0-64-16.4-82.7-43.8l-2.6-3.8 28.7-17.8 2.4 3.4c12.4 17.6 32.7 28.2 54.2 28.2 17.8 0 35.2-7.4 47.7-20.3l2.9-3 25.6 21.9-3.2 3.4c-9.3 9.9-20.2 17.7-32.6 23.2-12.7 5.7-26.3 8.6-40.4 8.6z" fill="#40a459"/><path d="M150.2 143.4l2.5-3.3c4.1-5.4 7.3-11.2 9.6-17.6h-49.1c-1.3 0-2.4-1.1-2.4-2.4v-29c0-1.3 1.1-2.4 2.4-2.4h84.4c1.1 0 2.1.9 2.1 2.1l.2 9.3c0 22.5-7.4 43.8-21.4 61.6l-2.8 3.6-25.5-21.9z" fill="#1d81ce"/></svg>