<?xml version="1.0"?>
<svg xmlns="http://www.w3.org/2000/svg" xmlns:xlink="http://www.w3.org/1999/xlink" xmlns:svgjs="http://svgjs.com/svgjs" version="1.1" width="512" height="512" x="0" y="0" viewBox="0 0 512 512" style="enable-background:new 0 0 512 512" xml:space="preserve" class=""><g><path xmlns="http://www.w3.org/2000/svg" d="m414.664062 113.632812-110.917968-109.316406c-2.808594-2.765625-6.589844-4.316406-10.53125-4.316406h-248.214844c-24.8125 0-45 20.1875-45 45v422c0 24.8125 20.1875 45 45 45h329.136719c24.8125 0 45-20.1875 45-45v-342.683594c-.003907-4.015625-1.613281-7.863281-4.472657-10.683594zm-106.449218-62.789062 59.332031 58.472656h-59.332031zm-263.214844-20.84375h233.214844v94.316406c0 8.285156 6.71875 15 15 15h95.921875v249.398438h-359.136719v-343.714844c0-8.269531 6.730469-15 15-15zm329.132812 452h-329.132812c-8.269531 0-15-6.730469-15-15v-48.285156h359.136719v48.285156c-.003907 8.269531-6.730469 15-15.003907 15zm0 0" fill="#ffffff" data-original="#000000"/><path xmlns="http://www.w3.org/2000/svg" d="m138.609375 344.898438c3.359375 1.710937 7.046875 2.550781 10.714844 2.550781 4.558593 0 9.089843-1.300781 12.933593-3.851563l120.011719-69.996094c.4375-.253906.859375-.53125 1.269531-.828124 5.535157-4.027344 8.710938-10.144532 8.707032-16.777344 0-6.628906-3.175782-12.742188-8.710938-16.769532-.40625-.296874-.832031-.574218-1.265625-.828124l-120.011719-69.996094c-6.9375-4.605469-16.113281-5.136719-23.652343-1.300782-7.230469 3.683594-11.71875 10.816407-11.71875 18.621094v140.554688c0 7.804687 4.492187 14.941406 11.722656 18.621094zm18.277344-144.898438 96.015625 56-96.015625 56.003906zm0 0" fill="#ffffff" data-original="#000000"/></g></svg>
