<svg xmlns="http://www.w3.org/2000/svg" xmlns:xlink="http://www.w3.org/1999/xlink" preserveAspectRatio="xMidYMid" width="21.969" height="21.97" viewBox="0 0 21.969 21.97">
  <defs>
    <style>
      .cls-1 {
        fill: #d1d1d1;

        fill-rule: evenodd;
      }
    </style>
  </defs>
  <path d="M7.583,10.404 L12.355,5.631 C12.642,5.345 13.108,5.345 13.395,5.631 C13.682,5.919 13.682,6.386 13.395,6.672 L9.141,10.927 L13.395,15.181 C13.682,15.468 13.682,15.933 13.395,16.221 C13.108,16.508 12.642,16.508 12.355,16.221 L7.583,11.450 C7.438,11.305 7.366,11.115 7.367,10.927 C7.367,10.737 7.438,10.549 7.583,10.404 ZM10.987,-0.004 C17.053,-0.004 21.972,4.913 21.972,10.981 C21.972,17.046 17.053,21.965 10.987,21.965 C4.921,21.965 0.003,17.046 0.003,10.981 C0.003,4.913 4.921,-0.004 10.987,-0.004 ZM10.987,20.493 C16.232,20.493 20.501,16.223 20.501,10.981 C20.501,5.735 16.232,1.467 10.987,1.467 C5.743,1.467 1.475,5.735 1.475,10.981 C1.475,16.223 5.743,20.493 10.987,20.493 Z" class="cls-1"/>
</svg>
