<?xml version="1.0" encoding="utf-8"?>
<!-- Generator: Adobe Illustrator 23.0.1, SVG Export Plug-In . SVG Version: 6.00 Build 0)  -->
<svg version="1.1" id="Слой_1" xmlns="http://www.w3.org/2000/svg" xmlns:xlink="http://www.w3.org/1999/xlink" x="0px" y="0px"
	 viewBox="0 0 47.6 47.6" style="enable-background:new 0 0 47.6 47.6;" xml:space="preserve">
<style type="text/css">
	.st0{fill-rule:evenodd;clip-rule:evenodd;fill:#C7B299;}
</style>
<path class="st0" d="M47.1,18.8L32.9,33.1L0,47.6l14.5-32.9L28.7,0.4c0.6-0.6,1.6-0.6,2.2,0c0.6,0.6,0.6,1.6,0,2.2L17.2,16.5L8.6,36
	l3,3L31,30.4l13.8-13.8c0.6-0.6,1.6-0.6,2.2,0C47.8,17.2,47.8,18.2,47.1,18.8z M29.2,27.6c-0.3,0.3-0.7,0.5-1.1,0.5
	c-0.4,0-0.8-0.2-1.1-0.5c-0.6-0.6-0.6-1.6,0-2.3L40.3,12c0.6-0.6,1.6-0.6,2.3,0c0.6,0.6,0.6,1.6,0,2.2L29.2,27.6z M25.7,24.1
	c-0.3,0.3-0.7,0.5-1.1,0.5c-0.4,0-0.8-0.2-1.1-0.5c-0.6-0.6-0.6-1.6,0-2.3L36.8,8.5c0.6-0.6,1.6-0.6,2.3,0c0.6,0.6,0.6,1.6,0,2.3
	L25.7,24.1z M22.3,20.6c-0.3,0.3-0.7,0.5-1.1,0.5s-0.8-0.2-1.1-0.5c-0.6-0.6-0.6-1.6,0-2.2L33.3,5C34,4.4,35,4.4,35.6,5
	c0.6,0.6,0.6,1.6,0,2.3L22.3,20.6z"/>
</svg>
