<svg xmlns="http://www.w3.org/2000/svg" xmlns:xlink="http://www.w3.org/1999/xlink" preserveAspectRatio="xMidYMid" width="33.937" height="33.91" viewBox="0 0 33.937 33.91">
  <defs>
    <style>
      .cls-1 {
        fill: #fff;
        fill-rule: evenodd;
      }
    </style>
  </defs>
  <path d="M33.299,9.586 L18.019,25.418 L8.480,25.418 L8.480,15.888 L24.327,0.621 C24.740,0.210 25.281,0.003 25.822,0.003 C26.364,0.003 26.905,0.210 27.318,0.622 L33.299,6.598 C34.125,7.423 34.125,8.761 33.299,9.586 ZM25.795,5.092 L12.719,17.688 L12.719,21.183 L16.217,21.183 L28.825,8.119 L25.795,5.092 ZM10.599,4.239 L5.300,4.239 C4.714,4.239 4.240,4.713 4.240,5.298 L4.240,28.596 C4.240,29.181 4.714,29.655 5.300,29.655 L28.618,29.655 C29.204,29.655 29.678,29.181 29.678,28.596 L29.678,23.300 C29.678,22.131 30.627,21.183 31.798,21.183 C32.969,21.183 33.918,22.131 33.918,23.300 L33.918,31.772 C33.918,32.942 32.969,33.891 31.798,33.891 L2.120,33.891 C0.949,33.891 0.000,32.942 0.000,31.772 L0.000,2.121 C0.000,0.951 0.949,0.003 2.120,0.003 L10.599,0.003 C11.770,0.003 12.719,0.951 12.719,2.121 C12.719,3.291 11.770,4.239 10.599,4.239 Z" class="cls-1"/>
</svg>
