<svg xmlns="http://www.w3.org/2000/svg" xmlns:xlink="http://www.w3.org/1999/xlink" preserveAspectRatio="xMidYMid" width="29.69" height="33.91" viewBox="0 0 29.69 33.91">
  <defs>
    <style>
      .cls-1 {
        fill: #fff;
        fill-rule: evenodd;
      }
    </style>
  </defs>
  <path d="M14.886,4.255 C20.712,4.255 25.451,9.005 25.451,14.845 C25.451,20.684 20.712,25.435 14.917,25.435 L14.791,25.427 C14.675,25.419 14.558,25.412 14.441,25.406 L13.730,25.377 L13.047,25.581 L5.962,27.703 L6.822,24.311 L7.295,22.446 L6.201,20.862 C4.971,19.085 4.322,17.004 4.322,14.845 C4.322,9.005 9.061,4.255 14.886,4.255 M14.886,0.019 C6.710,0.019 0.083,6.657 0.083,14.845 C0.083,17.977 1.058,20.877 2.713,23.271 L0.017,33.906 L14.264,29.639 C14.472,29.647 14.676,29.670 14.886,29.670 C23.062,29.670 29.690,23.033 29.690,14.845 C29.690,6.657 23.062,0.019 14.886,0.019 L14.886,0.019 Z" class="cls-1"/>
</svg>
