<svg xmlns="http://www.w3.org/2000/svg" xmlns:xlink="http://www.w3.org/1999/xlink" preserveAspectRatio="xMidYMid" width="33.75" height="33.91" viewBox="0 0 33.75 33.91">
  <defs>
    <style>
      .cls-1 {
        fill: #f1fbff;
        fill-rule: evenodd;
      }
    </style>
  </defs>
  <path d="M12.659,4.239 C17.307,4.239 21.089,8.039 21.089,12.711 C21.089,14.470 20.548,16.164 19.526,17.607 L18.697,18.778 L17.531,19.612 C16.094,20.640 14.410,21.183 12.659,21.183 C8.011,21.183 4.229,17.382 4.229,12.711 C4.229,8.039 8.011,4.239 12.659,4.239 M12.659,0.003 C5.676,0.003 0.015,5.693 0.015,12.711 C0.015,19.729 5.676,25.418 12.659,25.418 C15.388,25.418 17.908,24.540 19.975,23.063 L30.129,33.269 C30.542,33.684 31.082,33.891 31.622,33.891 C32.162,33.891 32.703,33.684 33.115,33.269 C33.939,32.441 33.939,31.098 33.115,30.269 L22.960,20.064 C24.430,17.987 25.304,15.454 25.304,12.711 C25.304,5.693 19.642,0.003 12.659,0.003 L12.659,0.003 Z" class="cls-1"/>
</svg>
