<?xml version="1.0" encoding="UTF-8"?>
<svg xmlns="http://www.w3.org/2000/svg" xmlns:xlink="http://www.w3.org/1999/xlink" width="20pt" height="20pt" viewBox="0 0 20 20" version="1.1">
<g id="surface1">
<path style=" stroke:none;fill-rule:nonzero;fill:white;fill-opacity:1;" d="M 2.929688 20 L 9.453125 20 L 9.453125 12.890625 L 7.109375 12.890625 L 7.109375 10.546875 L 9.453125 10.546875 L 9.453125 7.617188 C 9.453125 6 10.765625 4.6875 12.382812 4.6875 L 15.3125 4.6875 L 15.3125 7.03125 L 12.96875 7.03125 C 12.324219 7.03125 11.796875 7.558594 11.796875 8.203125 L 11.796875 10.546875 L 15.207031 10.546875 L 14.816406 12.890625 L 11.796875 12.890625 L 11.796875 20 L 17.070312 20 C 18.6875 20 20 18.6875 20 17.070312 L 20 2.929688 C 20 1.3125 18.6875 0 17.070312 0 L 2.929688 0 C 1.3125 0 0 1.3125 0 2.929688 L 0 17.070312 C 0 18.6875 1.3125 20 2.929688 20 Z M 1.171875 2.929688 C 1.171875 1.960938 1.960938 1.171875 2.929688 1.171875 L 17.070312 1.171875 C 18.039062 1.171875 18.828125 1.960938 18.828125 2.929688 L 18.828125 17.070312 C 18.828125 18.039062 18.039062 18.828125 17.070312 18.828125 L 12.96875 18.828125 L 12.96875 14.0625 L 15.808594 14.0625 L 16.589844 9.375 L 12.96875 9.375 L 12.96875 8.203125 L 16.484375 8.203125 L 16.484375 3.515625 L 12.382812 3.515625 C 10.121094 3.515625 8.28125 5.355469 8.28125 7.617188 L 8.28125 9.375 L 5.9375 9.375 L 5.9375 14.0625 L 8.28125 14.0625 L 8.28125 18.828125 L 2.929688 18.828125 C 1.960938 18.828125 1.171875 18.039062 1.171875 17.070312 Z M 1.171875 2.929688 "/>
</g>
</svg>
