<?xml version="1.0" encoding="UTF-8"?>
<svg xmlns="http://www.w3.org/2000/svg" xmlns:xlink="http://www.w3.org/1999/xlink" width="20pt" height="20pt" viewBox="0 0 20 20" version="1.1">
<g id="surface1">
<path style=" stroke:none;fill-rule:nonzero;fill:white;fill-opacity:1;" d="M 14.484375 0 L 5.519531 0 C 2.476562 0 0 2.476562 0 5.519531 L 0 14.484375 C 0 17.53125 2.476562 20.007812 5.519531 20.007812 L 14.484375 20.007812 C 17.53125 20.007812 20.007812 17.53125 20.007812 14.484375 L 20.007812 5.519531 C 20.007812 2.476562 17.53125 0 14.484375 0 Z M 18.230469 14.484375 C 18.230469 16.550781 16.550781 18.230469 14.484375 18.230469 L 5.519531 18.230469 C 3.457031 18.230469 1.773438 16.550781 1.773438 14.484375 L 1.773438 5.519531 C 1.773438 3.457031 3.457031 1.773438 5.519531 1.773438 L 14.484375 1.773438 C 16.550781 1.773438 18.230469 3.457031 18.230469 5.519531 Z M 18.230469 14.484375 "/>
<path style=" stroke:none;fill-rule:nonzero;fill:white;fill-opacity:1;" d="M 10.003906 4.847656 C 7.160156 4.847656 4.847656 7.160156 4.847656 10.003906 C 4.847656 12.847656 7.160156 15.160156 10.003906 15.160156 C 12.847656 15.160156 15.160156 12.847656 15.160156 10.003906 C 15.160156 7.160156 12.847656 4.847656 10.003906 4.847656 Z M 10.003906 13.382812 C 8.140625 13.382812 6.625 11.867188 6.625 10.003906 C 6.625 8.140625 8.140625 6.625 10.003906 6.625 C 11.867188 6.625 13.382812 8.140625 13.382812 10.003906 C 13.382812 11.867188 11.867188 13.382812 10.003906 13.382812 Z M 10.003906 13.382812 "/>
<path style=" stroke:none;fill-rule:nonzero;fill:white;fill-opacity:1;" d="M 15.375 3.34375 C 15.035156 3.34375 14.699219 3.480469 14.457031 3.722656 C 14.214844 3.964844 14.074219 4.300781 14.074219 4.644531 C 14.074219 4.988281 14.214844 5.324219 14.457031 5.566406 C 14.695312 5.808594 15.035156 5.945312 15.375 5.945312 C 15.71875 5.945312 16.054688 5.808594 16.296875 5.566406 C 16.539062 5.324219 16.675781 4.988281 16.675781 4.644531 C 16.675781 4.300781 16.539062 3.964844 16.296875 3.722656 C 16.054688 3.480469 15.71875 3.34375 15.375 3.34375 Z M 15.375 3.34375 "/>
</g>
</svg>
