<?xml version="1.0" encoding="UTF-8"?>
<svg xmlns="http://www.w3.org/2000/svg" xmlns:xlink="http://www.w3.org/1999/xlink" width="20pt" height="20pt" viewBox="0 0 20 20" version="1.1">
<g id="surface1">
<path style=" stroke:none;fill-rule:nonzero;fill:white;fill-opacity:1;" d="M 19.195312 11.523438 C 18.875 11.085938 18.730469 10.550781 18.730469 10.007812 C 18.730469 10.007812 18.730469 10.003906 18.730469 10 C 18.730469 5.179688 14.820312 1.269531 10 1.269531 C 8.945312 1.269531 7.933594 1.457031 7 1.800781 C 6.492188 1.988281 5.9375 2.023438 5.417969 1.875 C 4.960938 1.746094 4.472656 1.691406 3.964844 1.726562 C 1.832031 1.875 0.117188 3.621094 0.0078125 5.753906 C -0.046875 6.773438 0.257812 7.71875 0.808594 8.476562 C 1.125 8.914062 1.269531 9.449219 1.269531 9.992188 C 1.269531 9.992188 1.269531 9.996094 1.269531 10 C 1.269531 14.820312 5.179688 18.730469 10 18.730469 C 11.054688 18.730469 12.066406 18.542969 13 18.199219 C 13.507812 18.011719 14.0625 17.976562 14.582031 18.125 C 15.039062 18.253906 15.527344 18.308594 16.035156 18.273438 C 18.167969 18.125 19.882812 16.378906 19.996094 14.246094 C 20.046875 13.226562 19.742188 12.28125 19.195312 11.523438 Z M 10.320312 8.433594 C 12.078125 8.855469 14.738281 9.484375 14.738281 12.417969 C 14.738281 13.859375 14.027344 14.960938 12.738281 15.515625 C 11.816406 15.914062 10.773438 15.964844 9.875 15.964844 C 7.117188 15.964844 5.371094 13.820312 5.300781 13.730469 C 4.847656 13.160156 4.941406 12.335938 5.507812 11.882812 C 6.074219 11.429688 6.902344 11.523438 7.351562 12.089844 C 7.355469 12.097656 8.398438 13.292969 9.875 13.339844 C 11.65625 13.398438 12.0625 12.867188 12.113281 12.417969 C 12.179688 11.863281 11.6875 11.460938 9.710938 10.988281 C 8.039062 10.589844 5.507812 9.988281 5.507812 7.292969 C 5.507812 6.453125 5.847656 3.710938 10.246094 3.710938 C 13.023438 3.710938 14.664062 5.894531 14.730469 5.988281 C 15.160156 6.574219 15.035156 7.394531 14.453125 7.824219 C 13.871094 8.253906 13.054688 8.128906 12.621094 7.550781 C 12.589844 7.511719 11.652344 6.46875 10.246094 6.335938 C 9.183594 6.234375 8.132812 6.617188 8.132812 7.183594 C 8.132812 7.785156 8.433594 7.988281 10.320312 8.433594 Z M 10.320312 8.433594 "/>
</g>
</svg>
