<svg xmlns="http://www.w3.org/2000/svg" xmlns:xlink="http://www.w3.org/1999/xlink" width="154.906" height="62.551" viewBox="0 0 154.906 62.551">
  <defs>
    <filter id="Ellipse_35" x="0" y="0" width="62.551" height="62.551" filterUnits="userSpaceOnUse">
      <feOffset dy="2" input="SourceAlpha"/>
      <feGaussianBlur stdDeviation="7.5" result="blur"/>
      <feFlood flood-color="#17bf50" flood-opacity="0.6"/>
      <feComposite operator="in" in2="blur"/>
      <feComposite in="SourceGraphic"/>
    </filter>
    <radialGradient id="radial-gradient" cx="0.299" cy="0.178" r="0.651" gradientTransform="matrix(0.814, 0.581, -0.537, 0.752, 0.151, -0.13)" gradientUnits="objectBoundingBox">
      <stop offset="0" stop-color="#00ff18"/>
      <stop offset="1" stop-color="#1db15c"/>
    </radialGradient>
    <radialGradient id="radial-gradient-2" cx="0.299" cy="0.178" r="0.527" gradientTransform="matrix(0.602, 0.799, -0.8, 0.602, 0.261, -0.168)" gradientUnits="objectBoundingBox">
      <stop offset="0" stop-color="#00ff18"/>
      <stop offset="1" stop-color="#1c884a"/>
    </radialGradient>
  </defs>
  <g id="Group_2795" data-name="Group 2795" transform="translate(-1413.094 -6588.327)">
    <g id="Group_2771" data-name="Group 2771">
      <g id="logo-woop-full" transform="translate(1416.586 6592.102)">
        <g id="Header" transform="translate(11.207 6)">
          <g id="woopcash_logo" transform="translate(0)">
            <g id="badge" transform="translate(104.129 10.726)">
              <rect id="Rectangle" width="36.077" height="14.626" rx="3" fill="#fff"/>
              <path id="CASH" d="M8.267,10.954a3.755,3.755,0,0,1-2.8-1.126,3.813,3.813,0,0,1-1.1-2.778,3.808,3.808,0,0,1,1.1-2.783,3.765,3.765,0,0,1,2.8-1.121,3.827,3.827,0,0,1,1.882.477A3.5,3.5,0,0,1,11.5,4.916l-1.276.74a1.982,1.982,0,0,0-.794-.788,2.356,2.356,0,0,0-1.158-.284A2.355,2.355,0,0,0,6.5,5.27a2.441,2.441,0,0,0-.67,1.78A2.426,2.426,0,0,0,6.5,8.82a2.355,2.355,0,0,0,1.764.686,2.387,2.387,0,0,0,1.164-.284,1.921,1.921,0,0,0,.788-.778l1.276.74a3.5,3.5,0,0,1-1.341,1.292A3.818,3.818,0,0,1,8.267,10.954ZM17.2,10.8l-.45-1.351H13.759l-.45,1.351h-1.6L14.338,3.3h1.834L18.81,10.8ZM14.231,8.069H16.29L15.26,5Zm7.7,2.885a3.354,3.354,0,0,1-1.877-.5A2.668,2.668,0,0,1,18.982,9.1l1.266-.74a1.686,1.686,0,0,0,1.727,1.148,1.486,1.486,0,0,0,.912-.225A.709.709,0,0,0,22.822,8.1a5.46,5.46,0,0,0-1.266-.477,7.859,7.859,0,0,1-.853-.3,3.678,3.678,0,0,1-.7-.4,1.641,1.641,0,0,1-.531-.638,2.089,2.089,0,0,1-.182-.9,2.011,2.011,0,0,1,.724-1.625,2.626,2.626,0,0,1,1.743-.606,2.9,2.9,0,0,1,1.6.445A2.991,2.991,0,0,1,24.441,4.83L23.2,5.549a1.5,1.5,0,0,0-1.437-.965,1.133,1.133,0,0,0-.724.209.661.661,0,0,0-.263.542.683.683,0,0,0,.295.574,4.124,4.124,0,0,0,1.132.477q.343.107.52.166t.483.182a2.911,2.911,0,0,1,.472.231,3.721,3.721,0,0,1,.381.29,1.483,1.483,0,0,1,.327.375,2.149,2.149,0,0,1,.274,1.062,2.013,2.013,0,0,1-.756,1.652A3.033,3.033,0,0,1,21.932,10.954Zm7.9-7.658h1.469V10.8H29.836V7.694H27.048V10.8h-1.48V3.3h1.48V6.278h2.789Z" transform="translate(-0.109 -0.078)" fill="#22272d" fill-rule="evenodd"/>
            </g>
            <path id="WOOP" d="M47.922,24.643,44.1,10.993h3.764l2.106,8.6,2.438-8.6h2.75l2.438,8.6,2.126-8.6h3.744l-3.8,13.651H55.976l-2.184-7.7-2.184,7.7Zm27.237-1.755a7.3,7.3,0,0,1-10.15-.01,6.845,6.845,0,0,1-2.077-5.061,6.845,6.845,0,0,1,2.077-5.061,7.3,7.3,0,0,1,10.16,0,6.845,6.845,0,0,1,2.077,5.061A6.861,6.861,0,0,1,75.159,22.888Zm-7.7-2.4a3.691,3.691,0,0,0,6.318-2.672,3.687,3.687,0,1,0-7.371,0A3.62,3.62,0,0,0,67.456,20.49Zm22.6,2.4a7.3,7.3,0,0,1-10.15-.01,6.845,6.845,0,0,1-2.077-5.061A6.845,6.845,0,0,1,79.9,12.757a7.3,7.3,0,0,1,10.16,0,6.845,6.845,0,0,1,2.077,5.061A6.861,6.861,0,0,1,90.052,22.888Zm-7.7-2.4a3.691,3.691,0,0,0,6.318-2.672,3.687,3.687,0,1,0-7.371,0A3.62,3.62,0,0,0,82.349,20.49Zm16.2-9.5a4.824,4.824,0,0,1,3.471,1.346,4.547,4.547,0,0,1,1.4,3.432,4.547,4.547,0,0,1-1.4,3.432,4.824,4.824,0,0,1-3.471,1.346H96.735v4.1H93.244V10.993Zm0,6.24a1.322,1.322,0,0,0,.985-.41,1.446,1.446,0,0,0,.4-1.053,1.412,1.412,0,0,0-.4-1.043,1.338,1.338,0,0,0-.985-.4H96.735v2.906Z" transform="translate(-1.302 -0.267)" fill="#fff" fill-rule="evenodd"/>
            <g id="Oval-1" transform="translate(7.8 10.726)">
              <g transform="matrix(1, 0, 0, 1, -22.5, -20.5)" filter="url(#Ellipse_35)">
                <circle id="Ellipse_35-2" data-name="Ellipse 35" cx="8.776" cy="8.776" r="8.776" transform="translate(22.5 20.5)"/>
              </g>
              <circle id="Ellipse_36" data-name="Ellipse 36" cx="8.776" cy="8.776" r="8.776" fill="url(#radial-gradient)"/>
            </g>
            <circle id="Oval-1-2" data-name="Oval-1" cx="17.064" cy="17.064" r="17.064" transform="translate(0)" fill="url(#radial-gradient-2)"/>
            <g id="chart-up" transform="translate(5.85 10.726)">
              <g id="Capa_1" transform="translate(0 0)">
                <g id="Group">
                  <path id="Shape" d="M20.476,0,12,1.48l2.273,2.258L10.47,7.522,6.416,3.492,0,10.907,6.416,8.646l4.055,4.03,6.4-6.359,2.114,2.1Z" transform="translate(0 0)" fill="#fff" fill-rule="evenodd"/>
                </g>
              </g>
            </g>
          </g>
        </g>
      </g>
    </g>
  </g>
</svg>
