<svg xmlns="http://www.w3.org/2000/svg" xmlns:xlink="http://www.w3.org/1999/xlink" width="80" height="80" viewBox="0 0 80 80">
  <defs>
    <radialGradient id="radial-gradient" cx="0.088" cy="0.299" r="0.533" gradientTransform="translate(0 -0.003) scale(1 1.009)" gradientUnits="objectBoundingBox">
      <stop offset="0" stop-color="#9bbfff"/>
      <stop offset="1" stop-color="#1d66e9"/>
    </radialGradient>
  </defs>
  <g id="Group_2897" data-name="Group 2897" transform="translate(5320 2359)">
    <path id="Path_1011" data-name="Path 1011" d="M59.207,97.24a40,40,0,1,0-40-40A40,40,0,0,0,59.207,97.24Z" transform="translate(-5339.207 -2376.24)" fill="url(#radial-gradient)"/>
    <g id="Group_2899" data-name="Group 2899" transform="translate(34 69)">
      <g id="crown" transform="translate(-5333 -2473.599)">
        <g id="Group_2897-2" data-name="Group 2897" transform="translate(0 76)">
          <path id="Path_1044" data-name="Path 1044" d="M38.714,81.733a1.533,1.533,0,0,0-1.666-.212l-8.39,4.085-7.873-9.077a1.533,1.533,0,0,0-2.317,0l-7.873,9.077L2.2,81.521A1.533,1.533,0,0,0,.066,83.346l5.826,19.166A1.533,1.533,0,0,0,7.36,103.6H31.892a1.533,1.533,0,0,0,1.467-1.087l5.826-19.166A1.533,1.533,0,0,0,38.714,81.733Zm-7.958,18.8H8.5L4.023,85.817l6.288,3.061A1.533,1.533,0,0,0,12.14,88.5l7.486-8.631L27.112,88.5a1.533,1.533,0,0,0,1.829.374l6.288-3.061Z" transform="translate(0 -76)" fill="#fff" stroke="#fff" stroke-width="1"/>
        </g>
      </g>
      <g id="Group_2898" data-name="Group 2898">
        <g id="Ellipse_45" data-name="Ellipse 45" transform="translate(-5340 -2401)" fill="none" stroke="#fff" stroke-width="2">
          <circle cx="3.5" cy="3.5" r="3.5" stroke="none"/>
          <circle cx="3.5" cy="3.5" r="2.5" fill="none"/>
        </g>
        <g id="Ellipse_46" data-name="Ellipse 46" transform="translate(-5318 -2410)" fill="none" stroke="#fff" stroke-width="2">
          <circle cx="4.5" cy="4.5" r="4.5" stroke="none"/>
          <circle cx="4.5" cy="4.5" r="3.5" fill="none"/>
        </g>
        <g id="Ellipse_47" data-name="Ellipse 47" transform="translate(-5294 -2400)" fill="none" stroke="#fff" stroke-width="2">
          <circle cx="3.5" cy="3.5" r="3.5" stroke="none"/>
          <circle cx="3.5" cy="3.5" r="2.5" fill="none"/>
        </g>
      </g>
    </g>
  </g>
</svg>
