<svg xmlns="http://www.w3.org/2000/svg" xmlns:xlink="http://www.w3.org/1999/xlink" width="80" height="80" viewBox="0 0 80 80">
  <defs>
    <radialGradient id="radial-gradient" cx="0.15" cy="0.293" r="0.702" gradientTransform="matrix(0.855, 0.518, 0.519, -0.856, -0.13, 0.466)" gradientUnits="objectBoundingBox">
      <stop offset="0" stop-color="#f5a623"/>
      <stop offset="1" stop-color="#f32b20"/>
    </radialGradient>
  </defs>
  <g id="Group_2860" data-name="Group 2860" transform="translate(-1737 -1533)">
    <path id="Path_1034" data-name="Path 1034" d="M48.2,90.5a40,40,0,1,0-40-40A39.9,39.9,0,0,0,48.2,90.5Z" transform="translate(1728.8 1522.5)" fill="url(#radial-gradient)"/>
    <path id="Vector" d="M53.532,47.119a16.707,16.707,0,0,1-3.007,9.773,18.141,18.141,0,0,1-14.534,7.768,18.314,18.314,0,0,1-8.27-2,17.41,17.41,0,0,1-6.515-6.265A18.757,18.757,0,0,1,18.7,47.37c0-18.795,18.043-29.319,18.544-29.57,0,.251-1.5,6.265,1,8.771s6.014-.752,6.014-.752,9.272,9.021,9.272,21.3ZM45.764,51.63A12.9,12.9,0,0,0,41.5,41.606s-3.007,4.009-4.26,2.506c-1.5-1.5-2.506-8.771-2.506-8.771a21.251,21.251,0,0,0-8.27,16.539,9.785,9.785,0,0,0,9.773,9.773C41.755,61.654,45.764,56.893,45.764,51.63Z" transform="translate(1740.776 1530.041)" fill="#fff"/>
  </g>
</svg>
